<mxfile host="app.diagrams.net" modified="2024-04-11T13:55:29.998Z" agent="Mozilla/5.0 (Windows NT 10.0; Win64; x64) AppleWebKit/537.36 (KHTML, like Gecko) Chrome/123.0.0.0 Safari/537.36" etag="zFOdcvPCg1pfKf1m0sf8" version="24.2.3" type="device">
  <diagram name="Page-1" id="IzUhdpbr9xxSac3tQ3wu">
    <mxGraphModel dx="1434" dy="1915" grid="1" gridSize="10" guides="1" tooltips="1" connect="1" arrows="1" fold="1" page="1" pageScale="1" pageWidth="827" pageHeight="1169" math="0" shadow="0">
      <root>
        <mxCell id="0" />
        <mxCell id="1" parent="0" />
        <mxCell id="s7tWto9GQUN-szoU3cHA-1" value="Registrirani&lt;div&gt;&lt;span style=&quot;background-color: initial;&quot;&gt;korisnik&lt;/span&gt;&lt;/div&gt;" style="shape=umlActor;verticalLabelPosition=bottom;verticalAlign=top;html=1;outlineConnect=0;" parent="1" vertex="1">
          <mxGeometry x="132.49" y="380" width="30" height="60" as="geometry" />
        </mxCell>
        <mxCell id="s7tWto9GQUN-szoU3cHA-2" value="&lt;div&gt;&lt;span style=&quot;background-color: initial;&quot;&gt;Administrator&lt;/span&gt;&lt;/div&gt;" style="shape=umlActor;verticalLabelPosition=bottom;verticalAlign=top;html=1;outlineConnect=0;" parent="1" vertex="1">
          <mxGeometry x="134.15" y="711" width="30" height="60" as="geometry" />
        </mxCell>
        <mxCell id="s7tWto9GQUN-szoU3cHA-4" value="Pregled rasporeda projekcija" style="ellipse;whiteSpace=wrap;html=1;" parent="1" vertex="1">
          <mxGeometry x="320" y="-20" width="130" height="60" as="geometry" />
        </mxCell>
        <mxCell id="s7tWto9GQUN-szoU3cHA-5" value="Pregled komentara" style="ellipse;whiteSpace=wrap;html=1;" parent="1" vertex="1">
          <mxGeometry x="283" y="460" width="130" height="60" as="geometry" />
        </mxCell>
        <mxCell id="s7tWto9GQUN-szoU3cHA-6" value="Komentiranje filma" style="ellipse;whiteSpace=wrap;html=1;" parent="1" vertex="1">
          <mxGeometry x="330" y="390" width="130" height="60" as="geometry" />
        </mxCell>
        <mxCell id="s7tWto9GQUN-szoU3cHA-8" value="Pregled sala" style="ellipse;whiteSpace=wrap;html=1;" parent="1" vertex="1">
          <mxGeometry x="320" y="90" width="130" height="60" as="geometry" />
        </mxCell>
        <mxCell id="s7tWto9GQUN-szoU3cHA-9" value="Upravljanje filmovima" style="ellipse;whiteSpace=wrap;html=1;" parent="1" vertex="1">
          <mxGeometry x="290" y="650" width="130" height="60" as="geometry" />
        </mxCell>
        <mxCell id="s7tWto9GQUN-szoU3cHA-10" value="Upravljanje dvoranama" style="ellipse;whiteSpace=wrap;html=1;" parent="1" vertex="1">
          <mxGeometry x="290" y="780" width="130" height="60" as="geometry" />
        </mxCell>
        <mxCell id="s7tWto9GQUN-szoU3cHA-11" value="Upravljanje rezervacijama" style="ellipse;whiteSpace=wrap;html=1;" parent="1" vertex="1">
          <mxGeometry x="290" y="920" width="130" height="60" as="geometry" />
        </mxCell>
        <mxCell id="ehOAnHuSmPdxHiw3HloQ-9" value="Dodavanje filma" style="ellipse;whiteSpace=wrap;html=1;" parent="1" vertex="1">
          <mxGeometry x="606" y="540" width="100" height="60" as="geometry" />
        </mxCell>
        <mxCell id="ehOAnHuSmPdxHiw3HloQ-10" value="Izmjena filma" style="ellipse;whiteSpace=wrap;html=1;" parent="1" vertex="1">
          <mxGeometry x="516" y="660" width="100" height="60" as="geometry" />
        </mxCell>
        <mxCell id="ehOAnHuSmPdxHiw3HloQ-11" value="Brisanje filma" style="ellipse;whiteSpace=wrap;html=1;" parent="1" vertex="1">
          <mxGeometry x="606" y="610" width="100" height="60" as="geometry" />
        </mxCell>
        <mxCell id="ehOAnHuSmPdxHiw3HloQ-12" value="Dodavanje rezervacije" style="ellipse;whiteSpace=wrap;html=1;" parent="1" vertex="1">
          <mxGeometry x="637" y="870" width="100" height="60" as="geometry" />
        </mxCell>
        <mxCell id="ehOAnHuSmPdxHiw3HloQ-13" value="Izmjena rezervacije" style="ellipse;whiteSpace=wrap;html=1;" parent="1" vertex="1">
          <mxGeometry x="700" y="1010" width="100" height="60" as="geometry" />
        </mxCell>
        <mxCell id="ehOAnHuSmPdxHiw3HloQ-14" value="Brisanje rezervacije" style="ellipse;whiteSpace=wrap;html=1;" parent="1" vertex="1">
          <mxGeometry x="666" y="940" width="100" height="60" as="geometry" />
        </mxCell>
        <mxCell id="ehOAnHuSmPdxHiw3HloQ-19" value="Dodavanje dvorane" style="ellipse;whiteSpace=wrap;html=1;" parent="1" vertex="1">
          <mxGeometry x="590" y="711" width="100" height="60" as="geometry" />
        </mxCell>
        <mxCell id="ehOAnHuSmPdxHiw3HloQ-20" value="Izmjena dvorane" style="ellipse;whiteSpace=wrap;html=1;" parent="1" vertex="1">
          <mxGeometry x="550" y="820" width="100" height="60" as="geometry" />
        </mxCell>
        <mxCell id="ehOAnHuSmPdxHiw3HloQ-21" value="Brisanje dvorane" style="ellipse;whiteSpace=wrap;html=1;" parent="1" vertex="1">
          <mxGeometry x="666" y="760" width="100" height="60" as="geometry" />
        </mxCell>
        <mxCell id="ehOAnHuSmPdxHiw3HloQ-30" value="Filtriranje po Å¾anru" style="ellipse;whiteSpace=wrap;html=1;" parent="1" vertex="1">
          <mxGeometry x="650" y="-80" width="100" height="60" as="geometry" />
        </mxCell>
        <mxCell id="ehOAnHuSmPdxHiw3HloQ-31" value="Filtriranje po sali" style="ellipse;whiteSpace=wrap;html=1;" parent="1" vertex="1">
          <mxGeometry x="650" y="40" width="100" height="60" as="geometry" />
        </mxCell>
        <mxCell id="ehOAnHuSmPdxHiw3HloQ-32" value="Filtriranje po gradu" style="ellipse;whiteSpace=wrap;html=1;" parent="1" vertex="1">
          <mxGeometry x="720" y="-20" width="100" height="60" as="geometry" />
        </mxCell>
        <mxCell id="ehOAnHuSmPdxHiw3HloQ-33" value="Filtriranje po gradu" style="ellipse;whiteSpace=wrap;html=1;" parent="1" vertex="1">
          <mxGeometry x="560" y="90" width="100" height="60" as="geometry" />
        </mxCell>
        <mxCell id="ehOAnHuSmPdxHiw3HloQ-35" value="Filtriranje po kinu" style="ellipse;whiteSpace=wrap;html=1;" parent="1" vertex="1">
          <mxGeometry x="560" y="160" width="100" height="60" as="geometry" />
        </mxCell>
        <mxCell id="ehOAnHuSmPdxHiw3HloQ-47" value="Filtriranje po filmu" style="ellipse;whiteSpace=wrap;html=1;" parent="1" vertex="1">
          <mxGeometry x="540" y="410" width="100" height="60" as="geometry" />
        </mxCell>
        <mxCell id="ehOAnHuSmPdxHiw3HloQ-48" value="Filtriranje po korisniku" style="ellipse;whiteSpace=wrap;html=1;" parent="1" vertex="1">
          <mxGeometry x="510" y="480" width="100" height="60" as="geometry" />
        </mxCell>
        <mxCell id="7dDENGOAwGdoepzRAvrF-5" value="Prijava" style="ellipse;whiteSpace=wrap;html=1;" parent="1" vertex="1">
          <mxGeometry x="283" y="250" width="120" height="60" as="geometry" />
        </mxCell>
        <mxCell id="7dDENGOAwGdoepzRAvrF-6" value="Odjava" style="ellipse;whiteSpace=wrap;html=1;" parent="1" vertex="1">
          <mxGeometry x="420" y="270" width="120" height="60" as="geometry" />
        </mxCell>
        <mxCell id="7dDENGOAwGdoepzRAvrF-12" value="" style="endArrow=none;html=1;rounded=0;" parent="1" edge="1">
          <mxGeometry width="50" height="50" relative="1" as="geometry">
            <mxPoint x="230" y="1080" as="sourcePoint" />
            <mxPoint x="220" y="-140" as="targetPoint" />
          </mxGeometry>
        </mxCell>
        <mxCell id="7dDENGOAwGdoepzRAvrF-13" value="" style="endArrow=none;html=1;rounded=0;" parent="1" edge="1">
          <mxGeometry width="50" height="50" relative="1" as="geometry">
            <mxPoint x="220" y="-140" as="sourcePoint" />
            <mxPoint x="1040" y="-140" as="targetPoint" />
          </mxGeometry>
        </mxCell>
        <mxCell id="7dDENGOAwGdoepzRAvrF-14" value="" style="endArrow=none;html=1;rounded=0;" parent="1" edge="1">
          <mxGeometry width="50" height="50" relative="1" as="geometry">
            <mxPoint x="1040" y="1080" as="sourcePoint" />
            <mxPoint x="1040" y="-140" as="targetPoint" />
          </mxGeometry>
        </mxCell>
        <mxCell id="7dDENGOAwGdoepzRAvrF-15" value="" style="endArrow=none;html=1;rounded=0;" parent="1" edge="1">
          <mxGeometry width="50" height="50" relative="1" as="geometry">
            <mxPoint x="230" y="1080" as="sourcePoint" />
            <mxPoint x="1040" y="1080" as="targetPoint" />
          </mxGeometry>
        </mxCell>
        <mxCell id="7dDENGOAwGdoepzRAvrF-16" value="&lt;font style=&quot;font-size: 18px;&quot;&gt;Sustav za upravljanje kinima&lt;/font&gt;" style="text;html=1;align=center;verticalAlign=middle;resizable=0;points=[];autosize=1;strokeColor=none;fillColor=none;" parent="1" vertex="1">
          <mxGeometry x="505" y="-137" width="250" height="40" as="geometry" />
        </mxCell>
        <mxCell id="NLR75R3IP2dXKlOaMzr2-1" value="Baza podataka" style="shape=umlActor;verticalLabelPosition=bottom;verticalAlign=top;html=1;outlineConnect=0;" parent="1" vertex="1">
          <mxGeometry x="1110" y="690" width="30" height="70" as="geometry" />
        </mxCell>
        <mxCell id="NLR75R3IP2dXKlOaMzr2-14" value="" style="html=1;labelBackgroundColor=#ffffff;startArrow=none;startFill=0;startSize=6;endArrow=classic;endFill=1;endSize=6;jettySize=auto;orthogonalLoop=1;strokeWidth=1;dashed=1;fontSize=14;rounded=0;entryX=0.996;entryY=0.315;entryDx=0;entryDy=0;entryPerimeter=0;" parent="1" target="s7tWto9GQUN-szoU3cHA-4" edge="1">
          <mxGeometry width="60" height="60" relative="1" as="geometry">
            <mxPoint x="650" y="-40" as="sourcePoint" />
            <mxPoint x="480" as="targetPoint" />
          </mxGeometry>
        </mxCell>
        <mxCell id="NLR75R3IP2dXKlOaMzr2-17" value="&amp;lt;&amp;lt;extend&amp;gt;&amp;gt;" style="edgeLabel;html=1;align=center;verticalAlign=middle;resizable=0;points=[];" parent="NLR75R3IP2dXKlOaMzr2-14" vertex="1" connectable="0">
          <mxGeometry x="-0.1441" y="4" relative="1" as="geometry">
            <mxPoint x="-12" as="offset" />
          </mxGeometry>
        </mxCell>
        <mxCell id="NLR75R3IP2dXKlOaMzr2-15" value="" style="html=1;labelBackgroundColor=#ffffff;startArrow=none;startFill=0;startSize=6;endArrow=classic;endFill=1;endSize=6;jettySize=auto;orthogonalLoop=1;strokeWidth=1;dashed=1;fontSize=14;rounded=0;entryX=1;entryY=0.5;entryDx=0;entryDy=0;exitX=0;exitY=0.5;exitDx=0;exitDy=0;" parent="1" source="ehOAnHuSmPdxHiw3HloQ-32" target="s7tWto9GQUN-szoU3cHA-4" edge="1">
          <mxGeometry width="60" height="60" relative="1" as="geometry">
            <mxPoint x="620" y="140" as="sourcePoint" />
            <mxPoint x="680" y="80" as="targetPoint" />
          </mxGeometry>
        </mxCell>
        <mxCell id="NLR75R3IP2dXKlOaMzr2-18" value="&amp;lt;&amp;lt;extend&amp;gt;&amp;gt;" style="edgeLabel;html=1;align=center;verticalAlign=middle;resizable=0;points=[];" parent="NLR75R3IP2dXKlOaMzr2-15" vertex="1" connectable="0">
          <mxGeometry x="-0.0785" y="1" relative="1" as="geometry">
            <mxPoint x="5" y="-1" as="offset" />
          </mxGeometry>
        </mxCell>
        <mxCell id="NLR75R3IP2dXKlOaMzr2-16" value="" style="html=1;labelBackgroundColor=#ffffff;startArrow=none;startFill=0;startSize=6;endArrow=classic;endFill=1;endSize=6;jettySize=auto;orthogonalLoop=1;strokeWidth=1;dashed=1;fontSize=14;rounded=0;exitX=0.042;exitY=0.315;exitDx=0;exitDy=0;exitPerimeter=0;" parent="1" source="ehOAnHuSmPdxHiw3HloQ-31" edge="1">
          <mxGeometry width="60" height="60" relative="1" as="geometry">
            <mxPoint x="620" y="190" as="sourcePoint" />
            <mxPoint x="447" y="20" as="targetPoint" />
          </mxGeometry>
        </mxCell>
        <mxCell id="NLR75R3IP2dXKlOaMzr2-19" value="&amp;lt;&amp;lt;extend&amp;gt;&amp;gt;" style="edgeLabel;html=1;align=center;verticalAlign=middle;resizable=0;points=[];" parent="NLR75R3IP2dXKlOaMzr2-16" vertex="1" connectable="0">
          <mxGeometry x="-0.2003" y="-2" relative="1" as="geometry">
            <mxPoint x="-13" y="-1" as="offset" />
          </mxGeometry>
        </mxCell>
        <mxCell id="NLR75R3IP2dXKlOaMzr2-20" value="" style="html=1;labelBackgroundColor=#ffffff;startArrow=none;startFill=0;startSize=6;endArrow=classic;endFill=1;endSize=6;jettySize=auto;orthogonalLoop=1;strokeWidth=1;dashed=1;fontSize=14;rounded=0;exitX=0;exitY=0.5;exitDx=0;exitDy=0;entryX=0.977;entryY=0.367;entryDx=0;entryDy=0;entryPerimeter=0;" parent="1" source="ehOAnHuSmPdxHiw3HloQ-47" target="s7tWto9GQUN-szoU3cHA-5" edge="1">
          <mxGeometry width="60" height="60" relative="1" as="geometry">
            <mxPoint x="720" y="100" as="sourcePoint" />
            <mxPoint x="450" y="280" as="targetPoint" />
          </mxGeometry>
        </mxCell>
        <mxCell id="NLR75R3IP2dXKlOaMzr2-21" value="&amp;lt;&amp;lt;extend&amp;gt;&amp;gt;" style="edgeLabel;html=1;align=center;verticalAlign=middle;resizable=0;points=[];" parent="NLR75R3IP2dXKlOaMzr2-20" vertex="1" connectable="0">
          <mxGeometry x="-0.1441" y="4" relative="1" as="geometry">
            <mxPoint x="-12" y="-2" as="offset" />
          </mxGeometry>
        </mxCell>
        <mxCell id="NLR75R3IP2dXKlOaMzr2-22" value="" style="html=1;labelBackgroundColor=#ffffff;startArrow=none;startFill=0;startSize=6;endArrow=classic;endFill=1;endSize=6;jettySize=auto;orthogonalLoop=1;strokeWidth=1;dashed=1;fontSize=14;rounded=0;exitX=0;exitY=0.5;exitDx=0;exitDy=0;entryX=1;entryY=0.5;entryDx=0;entryDy=0;" parent="1" source="ehOAnHuSmPdxHiw3HloQ-48" target="s7tWto9GQUN-szoU3cHA-5" edge="1">
          <mxGeometry width="60" height="60" relative="1" as="geometry">
            <mxPoint x="737" y="250" as="sourcePoint" />
            <mxPoint x="457" y="292" as="targetPoint" />
          </mxGeometry>
        </mxCell>
        <mxCell id="NLR75R3IP2dXKlOaMzr2-23" value="&amp;lt;&amp;lt;extend&amp;gt;&amp;gt;" style="edgeLabel;html=1;align=center;verticalAlign=middle;resizable=0;points=[];" parent="NLR75R3IP2dXKlOaMzr2-22" vertex="1" connectable="0">
          <mxGeometry x="-0.1441" y="4" relative="1" as="geometry">
            <mxPoint x="-10" y="-5" as="offset" />
          </mxGeometry>
        </mxCell>
        <mxCell id="NLR75R3IP2dXKlOaMzr2-24" value="" style="html=1;labelBackgroundColor=#ffffff;startArrow=none;startFill=0;startSize=6;endArrow=classic;endFill=1;endSize=6;jettySize=auto;orthogonalLoop=1;strokeWidth=1;dashed=1;fontSize=14;rounded=0;exitX=0;exitY=0.5;exitDx=0;exitDy=0;entryX=1;entryY=0.5;entryDx=0;entryDy=0;" parent="1" source="ehOAnHuSmPdxHiw3HloQ-33" target="s7tWto9GQUN-szoU3cHA-8" edge="1">
          <mxGeometry width="60" height="60" relative="1" as="geometry">
            <mxPoint x="727" y="320" as="sourcePoint" />
            <mxPoint x="447" y="362" as="targetPoint" />
          </mxGeometry>
        </mxCell>
        <mxCell id="NLR75R3IP2dXKlOaMzr2-25" value="&amp;lt;&amp;lt;extend&amp;gt;&amp;gt;" style="edgeLabel;html=1;align=center;verticalAlign=middle;resizable=0;points=[];" parent="NLR75R3IP2dXKlOaMzr2-24" vertex="1" connectable="0">
          <mxGeometry x="-0.1441" y="4" relative="1" as="geometry">
            <mxPoint x="-3" y="-4" as="offset" />
          </mxGeometry>
        </mxCell>
        <mxCell id="NLR75R3IP2dXKlOaMzr2-26" value="" style="html=1;labelBackgroundColor=#ffffff;startArrow=none;startFill=0;startSize=6;endArrow=classic;endFill=1;endSize=6;jettySize=auto;orthogonalLoop=1;strokeWidth=1;dashed=1;fontSize=14;rounded=0;exitX=0.048;exitY=0.275;exitDx=0;exitDy=0;exitPerimeter=0;" parent="1" source="ehOAnHuSmPdxHiw3HloQ-35" target="s7tWto9GQUN-szoU3cHA-8" edge="1">
          <mxGeometry width="60" height="60" relative="1" as="geometry">
            <mxPoint x="590" y="370.5" as="sourcePoint" />
            <mxPoint x="450" y="130" as="targetPoint" />
          </mxGeometry>
        </mxCell>
        <mxCell id="NLR75R3IP2dXKlOaMzr2-27" value="&amp;lt;&amp;lt;extend&amp;gt;&amp;gt;" style="edgeLabel;html=1;align=center;verticalAlign=middle;resizable=0;points=[];" parent="NLR75R3IP2dXKlOaMzr2-26" vertex="1" connectable="0">
          <mxGeometry x="-0.1441" y="4" relative="1" as="geometry">
            <mxPoint y="-3" as="offset" />
          </mxGeometry>
        </mxCell>
        <mxCell id="NLR75R3IP2dXKlOaMzr2-30" value="Registracija" style="ellipse;whiteSpace=wrap;html=1;" parent="1" vertex="1">
          <mxGeometry x="320" y="187" width="120" height="53" as="geometry" />
        </mxCell>
        <mxCell id="NLR75R3IP2dXKlOaMzr2-32" value="&lt;div&gt;&lt;span style=&quot;background-color: initial;&quot;&gt;Javni&lt;/span&gt;&lt;/div&gt;&lt;div&gt;&lt;span style=&quot;background-color: initial;&quot;&gt;korisnik&lt;/span&gt;&lt;/div&gt;" style="shape=umlActor;verticalLabelPosition=bottom;verticalAlign=top;html=1;outlineConnect=0;" parent="1" vertex="1">
          <mxGeometry x="60" y="180" width="30" height="60" as="geometry" />
        </mxCell>
        <mxCell id="NLR75R3IP2dXKlOaMzr2-36" value="Korisnik" style="shape=umlActor;verticalLabelPosition=bottom;verticalAlign=top;html=1;outlineConnect=0;" parent="1" vertex="1">
          <mxGeometry x="120" y="-20" width="30" height="60" as="geometry" />
        </mxCell>
        <mxCell id="NLR75R3IP2dXKlOaMzr2-40" value="" style="endArrow=none;html=1;rounded=0;entryX=0;entryY=0.5;entryDx=0;entryDy=0;endFill=0;" parent="1" target="s7tWto9GQUN-szoU3cHA-4" edge="1">
          <mxGeometry width="50" height="50" relative="1" as="geometry">
            <mxPoint x="160" y="10" as="sourcePoint" />
            <mxPoint x="300" y="-20" as="targetPoint" />
          </mxGeometry>
        </mxCell>
        <mxCell id="NLR75R3IP2dXKlOaMzr2-41" value="" style="endArrow=none;html=1;rounded=0;entryX=0.023;entryY=0.319;entryDx=0;entryDy=0;entryPerimeter=0;endFill=0;" parent="1" target="s7tWto9GQUN-szoU3cHA-8" edge="1">
          <mxGeometry width="50" height="50" relative="1" as="geometry">
            <mxPoint x="160" y="10" as="sourcePoint" />
            <mxPoint x="290" y="80" as="targetPoint" />
          </mxGeometry>
        </mxCell>
        <mxCell id="NLR75R3IP2dXKlOaMzr2-43" value="" style="endArrow=none;html=1;rounded=0;entryX=0;entryY=0.5;entryDx=0;entryDy=0;endFill=0;" parent="1" source="NLR75R3IP2dXKlOaMzr2-32" target="NLR75R3IP2dXKlOaMzr2-30" edge="1">
          <mxGeometry width="50" height="50" relative="1" as="geometry">
            <mxPoint x="110" y="214" as="sourcePoint" />
            <mxPoint x="210" y="120" as="targetPoint" />
          </mxGeometry>
        </mxCell>
        <mxCell id="NLR75R3IP2dXKlOaMzr2-45" value="" style="endArrow=none;html=1;rounded=0;entryX=0;entryY=0.5;entryDx=0;entryDy=0;endFill=0;" parent="1" target="7dDENGOAwGdoepzRAvrF-5" edge="1">
          <mxGeometry width="50" height="50" relative="1" as="geometry">
            <mxPoint x="180" y="390" as="sourcePoint" />
            <mxPoint x="300" y="300" as="targetPoint" />
          </mxGeometry>
        </mxCell>
        <mxCell id="NLR75R3IP2dXKlOaMzr2-46" value="" style="endArrow=none;html=1;rounded=0;entryX=0.021;entryY=0.658;entryDx=0;entryDy=0;entryPerimeter=0;endFill=0;" parent="1" target="7dDENGOAwGdoepzRAvrF-6" edge="1">
          <mxGeometry width="50" height="50" relative="1" as="geometry">
            <mxPoint x="180" y="400" as="sourcePoint" />
            <mxPoint x="310" y="350" as="targetPoint" />
          </mxGeometry>
        </mxCell>
        <mxCell id="NLR75R3IP2dXKlOaMzr2-47" value="" style="endArrow=none;html=1;rounded=0;entryX=0;entryY=0.5;entryDx=0;entryDy=0;endFill=0;" parent="1" target="NLR75R3IP2dXKlOaMzr2-111" edge="1">
          <mxGeometry width="50" height="50" relative="1" as="geometry">
            <mxPoint x="180" y="410" as="sourcePoint" />
            <mxPoint x="370" y="370" as="targetPoint" />
          </mxGeometry>
        </mxCell>
        <mxCell id="NLR75R3IP2dXKlOaMzr2-48" value="" style="endArrow=none;html=1;rounded=0;entryX=0;entryY=0.5;entryDx=0;entryDy=0;endFill=0;" parent="1" target="s7tWto9GQUN-szoU3cHA-6" edge="1">
          <mxGeometry width="50" height="50" relative="1" as="geometry">
            <mxPoint x="180" y="420" as="sourcePoint" />
            <mxPoint x="310" y="460" as="targetPoint" />
          </mxGeometry>
        </mxCell>
        <mxCell id="NLR75R3IP2dXKlOaMzr2-49" value="" style="endArrow=none;html=1;rounded=0;entryX=0.051;entryY=0.256;entryDx=0;entryDy=0;entryPerimeter=0;endFill=0;" parent="1" target="s7tWto9GQUN-szoU3cHA-5" edge="1">
          <mxGeometry width="50" height="50" relative="1" as="geometry">
            <mxPoint x="180" y="430" as="sourcePoint" />
            <mxPoint x="320" y="520" as="targetPoint" />
          </mxGeometry>
        </mxCell>
        <mxCell id="NLR75R3IP2dXKlOaMzr2-52" value="" style="endArrow=none;html=1;rounded=0;entryX=0.031;entryY=0.7;entryDx=0;entryDy=0;entryPerimeter=0;endFill=0;" parent="1" edge="1" target="s7tWto9GQUN-szoU3cHA-9">
          <mxGeometry width="50" height="50" relative="1" as="geometry">
            <mxPoint x="190" y="740" as="sourcePoint" />
            <mxPoint x="300" y="670" as="targetPoint" />
          </mxGeometry>
        </mxCell>
        <mxCell id="NLR75R3IP2dXKlOaMzr2-53" value="" style="endArrow=none;html=1;rounded=0;entryX=0;entryY=0.5;entryDx=0;entryDy=0;endFill=0;" parent="1" target="s7tWto9GQUN-szoU3cHA-10" edge="1">
          <mxGeometry width="50" height="50" relative="1" as="geometry">
            <mxPoint x="190" y="750" as="sourcePoint" />
            <mxPoint x="300" y="760" as="targetPoint" />
          </mxGeometry>
        </mxCell>
        <mxCell id="NLR75R3IP2dXKlOaMzr2-54" value="" style="endArrow=none;html=1;rounded=0;entryX=0;entryY=0;entryDx=0;entryDy=0;endFill=0;" parent="1" target="s7tWto9GQUN-szoU3cHA-11" edge="1">
          <mxGeometry width="50" height="50" relative="1" as="geometry">
            <mxPoint x="190" y="760" as="sourcePoint" />
            <mxPoint x="300" y="840" as="targetPoint" />
          </mxGeometry>
        </mxCell>
        <mxCell id="NLR75R3IP2dXKlOaMzr2-55" value="" style="endArrow=none;html=1;rounded=0;" parent="1" edge="1">
          <mxGeometry width="50" height="50" relative="1" as="geometry">
            <mxPoint x="80" y="170" as="sourcePoint" />
            <mxPoint x="110" y="90" as="targetPoint" />
          </mxGeometry>
        </mxCell>
        <mxCell id="NLR75R3IP2dXKlOaMzr2-56" value="" style="triangle;whiteSpace=wrap;html=1;rotation=-75;" parent="1" vertex="1">
          <mxGeometry x="106.81" y="70.66" width="13.71" height="21.79" as="geometry" />
        </mxCell>
        <mxCell id="NLR75R3IP2dXKlOaMzr2-61" value="" style="endArrow=none;html=1;rounded=0;entryX=0;entryY=0.5;entryDx=0;entryDy=0;" parent="1" target="NLR75R3IP2dXKlOaMzr2-60" edge="1">
          <mxGeometry width="50" height="50" relative="1" as="geometry">
            <mxPoint x="146.14999999999998" y="370" as="sourcePoint" />
            <mxPoint x="146.04" y="108.28999999999999" as="targetPoint" />
          </mxGeometry>
        </mxCell>
        <mxCell id="NLR75R3IP2dXKlOaMzr2-60" value="" style="triangle;whiteSpace=wrap;html=1;rotation=-92;" parent="1" vertex="1">
          <mxGeometry x="139.99999999999997" y="70.66" width="14.98" height="23.39" as="geometry" />
        </mxCell>
        <mxCell id="NLR75R3IP2dXKlOaMzr2-66" value="" style="endArrow=none;html=1;rounded=0;" parent="1" source="NLR75R3IP2dXKlOaMzr2-67" edge="1">
          <mxGeometry width="50" height="50" relative="1" as="geometry">
            <mxPoint x="154.15" y="700" as="sourcePoint" />
            <mxPoint x="154.15" y="490" as="targetPoint" />
          </mxGeometry>
        </mxCell>
        <mxCell id="NLR75R3IP2dXKlOaMzr2-68" value="" style="endArrow=none;html=1;rounded=0;entryX=0;entryY=0.5;entryDx=0;entryDy=0;" parent="1" target="NLR75R3IP2dXKlOaMzr2-67" edge="1">
          <mxGeometry width="50" height="50" relative="1" as="geometry">
            <mxPoint x="149" y="700" as="sourcePoint" />
            <mxPoint x="150.09904761904792" y="510" as="targetPoint" />
          </mxGeometry>
        </mxCell>
        <mxCell id="NLR75R3IP2dXKlOaMzr2-67" value="" style="triangle;whiteSpace=wrap;html=1;rotation=-90;" parent="1" vertex="1">
          <mxGeometry x="144.15" y="480" width="10" height="20" as="geometry" />
        </mxCell>
        <mxCell id="NLR75R3IP2dXKlOaMzr2-74" value="" style="endArrow=none;html=1;rounded=0;entryX=0;entryY=1;entryDx=0;entryDy=0;" parent="1" source="NLR75R3IP2dXKlOaMzr2-79" target="ehOAnHuSmPdxHiw3HloQ-9" edge="1">
          <mxGeometry width="50" height="50" relative="1" as="geometry">
            <mxPoint x="406" y="660" as="sourcePoint" />
            <mxPoint x="456" y="600" as="targetPoint" />
          </mxGeometry>
        </mxCell>
        <mxCell id="NLR75R3IP2dXKlOaMzr2-77" value="" style="endArrow=none;html=1;rounded=0;entryX=0;entryY=0.5;entryDx=0;entryDy=0;exitX=1;exitY=0.5;exitDx=0;exitDy=0;" parent="1" source="NLR75R3IP2dXKlOaMzr2-78" target="ehOAnHuSmPdxHiw3HloQ-11" edge="1">
          <mxGeometry width="50" height="50" relative="1" as="geometry">
            <mxPoint x="436" y="670" as="sourcePoint" />
            <mxPoint x="506" y="630" as="targetPoint" />
          </mxGeometry>
        </mxCell>
        <mxCell id="NLR75R3IP2dXKlOaMzr2-78" value="" style="triangle;whiteSpace=wrap;html=1;rotation=-190;" parent="1" vertex="1">
          <mxGeometry x="417" y="660" width="10" height="20" as="geometry" />
        </mxCell>
        <mxCell id="NLR75R3IP2dXKlOaMzr2-80" value="" style="endArrow=none;html=1;rounded=0;entryX=0;entryY=1;entryDx=0;entryDy=0;" parent="1" target="NLR75R3IP2dXKlOaMzr2-79" edge="1">
          <mxGeometry width="50" height="50" relative="1" as="geometry">
            <mxPoint x="406" y="660" as="sourcePoint" />
            <mxPoint x="461" y="621" as="targetPoint" />
          </mxGeometry>
        </mxCell>
        <mxCell id="NLR75R3IP2dXKlOaMzr2-79" value="" style="triangle;whiteSpace=wrap;html=1;rotation=-215;" parent="1" vertex="1">
          <mxGeometry x="405" y="650" width="10" height="20" as="geometry" />
        </mxCell>
        <mxCell id="NLR75R3IP2dXKlOaMzr2-81" value="" style="endArrow=none;html=1;rounded=0;" parent="1" source="NLR75R3IP2dXKlOaMzr2-82" edge="1">
          <mxGeometry width="50" height="50" relative="1" as="geometry">
            <mxPoint x="426" y="690" as="sourcePoint" />
            <mxPoint x="516" y="690" as="targetPoint" />
          </mxGeometry>
        </mxCell>
        <mxCell id="NLR75R3IP2dXKlOaMzr2-83" value="" style="endArrow=none;html=1;rounded=0;" parent="1" target="NLR75R3IP2dXKlOaMzr2-82" edge="1">
          <mxGeometry width="50" height="50" relative="1" as="geometry">
            <mxPoint x="426" y="690" as="sourcePoint" />
            <mxPoint x="516" y="690" as="targetPoint" />
          </mxGeometry>
        </mxCell>
        <mxCell id="NLR75R3IP2dXKlOaMzr2-82" value="" style="triangle;whiteSpace=wrap;html=1;rotation=-180;" parent="1" vertex="1">
          <mxGeometry x="417" y="680" width="10" height="20" as="geometry" />
        </mxCell>
        <mxCell id="NLR75R3IP2dXKlOaMzr2-84" value="" style="endArrow=none;html=1;rounded=0;entryX=0.025;entryY=0.648;entryDx=0;entryDy=0;entryPerimeter=0;" parent="1" source="NLR75R3IP2dXKlOaMzr2-87" target="ehOAnHuSmPdxHiw3HloQ-19" edge="1">
          <mxGeometry width="50" height="50" relative="1" as="geometry">
            <mxPoint x="416" y="790" as="sourcePoint" />
            <mxPoint x="446" y="740" as="targetPoint" />
          </mxGeometry>
        </mxCell>
        <mxCell id="NLR75R3IP2dXKlOaMzr2-88" value="" style="endArrow=none;html=1;rounded=0;entryX=0.025;entryY=0.648;entryDx=0;entryDy=0;entryPerimeter=0;" parent="1" target="NLR75R3IP2dXKlOaMzr2-87" edge="1">
          <mxGeometry width="50" height="50" relative="1" as="geometry">
            <mxPoint x="416" y="790" as="sourcePoint" />
            <mxPoint x="579" y="759" as="targetPoint" />
          </mxGeometry>
        </mxCell>
        <mxCell id="NLR75R3IP2dXKlOaMzr2-87" value="" style="triangle;whiteSpace=wrap;html=1;rotation=-190;" parent="1" vertex="1">
          <mxGeometry x="409.05" y="780.61" width="10" height="20" as="geometry" />
        </mxCell>
        <mxCell id="NLR75R3IP2dXKlOaMzr2-89" value="" style="endArrow=none;html=1;rounded=0;entryX=0;entryY=0.5;entryDx=0;entryDy=0;exitX=1;exitY=0.5;exitDx=0;exitDy=0;" parent="1" source="NLR75R3IP2dXKlOaMzr2-90" target="ehOAnHuSmPdxHiw3HloQ-21" edge="1">
          <mxGeometry width="50" height="50" relative="1" as="geometry">
            <mxPoint x="446" y="830" as="sourcePoint" />
            <mxPoint x="496" y="780" as="targetPoint" />
          </mxGeometry>
        </mxCell>
        <mxCell id="NLR75R3IP2dXKlOaMzr2-91" value="" style="endArrow=none;html=1;rounded=0;entryX=0;entryY=0.5;entryDx=0;entryDy=0;exitX=1;exitY=0.5;exitDx=0;exitDy=0;" parent="1" source="s7tWto9GQUN-szoU3cHA-10" target="NLR75R3IP2dXKlOaMzr2-90" edge="1">
          <mxGeometry width="50" height="50" relative="1" as="geometry">
            <mxPoint x="420" y="810" as="sourcePoint" />
            <mxPoint x="636" y="810" as="targetPoint" />
          </mxGeometry>
        </mxCell>
        <mxCell id="NLR75R3IP2dXKlOaMzr2-90" value="" style="triangle;whiteSpace=wrap;html=1;rotation=-180;" parent="1" vertex="1">
          <mxGeometry x="420" y="800" width="12" height="20" as="geometry" />
        </mxCell>
        <mxCell id="NLR75R3IP2dXKlOaMzr2-92" value="" style="endArrow=none;html=1;rounded=0;entryX=0;entryY=0.5;entryDx=0;entryDy=0;exitX=1;exitY=0.5;exitDx=0;exitDy=0;" parent="1" source="NLR75R3IP2dXKlOaMzr2-93" target="ehOAnHuSmPdxHiw3HloQ-20" edge="1">
          <mxGeometry width="50" height="50" relative="1" as="geometry">
            <mxPoint x="426" y="880" as="sourcePoint" />
            <mxPoint x="476" y="830" as="targetPoint" />
          </mxGeometry>
        </mxCell>
        <mxCell id="NLR75R3IP2dXKlOaMzr2-96" value="" style="endArrow=none;html=1;rounded=0;entryX=0;entryY=0.5;entryDx=0;entryDy=0;exitX=0.97;exitY=0.785;exitDx=0;exitDy=0;exitPerimeter=0;" parent="1" source="s7tWto9GQUN-szoU3cHA-10" target="NLR75R3IP2dXKlOaMzr2-93" edge="1">
          <mxGeometry width="50" height="50" relative="1" as="geometry">
            <mxPoint x="416" y="827" as="sourcePoint" />
            <mxPoint x="506" y="860" as="targetPoint" />
          </mxGeometry>
        </mxCell>
        <mxCell id="NLR75R3IP2dXKlOaMzr2-93" value="" style="triangle;whiteSpace=wrap;html=1;rotation=-155;" parent="1" vertex="1">
          <mxGeometry x="409.04999999999995" y="820" width="10" height="20" as="geometry" />
        </mxCell>
        <mxCell id="NLR75R3IP2dXKlOaMzr2-99" value="" style="endArrow=none;html=1;rounded=0;" parent="1" edge="1">
          <mxGeometry width="50" height="50" relative="1" as="geometry">
            <mxPoint x="426" y="930" as="sourcePoint" />
            <mxPoint x="636" y="900" as="targetPoint" />
          </mxGeometry>
        </mxCell>
        <mxCell id="NLR75R3IP2dXKlOaMzr2-100" value="" style="endArrow=none;html=1;rounded=0;entryX=0;entryY=0.5;entryDx=0;entryDy=0;exitX=1;exitY=0.5;exitDx=0;exitDy=0;" parent="1" source="NLR75R3IP2dXKlOaMzr2-106" target="ehOAnHuSmPdxHiw3HloQ-14" edge="1">
          <mxGeometry width="50" height="50" relative="1" as="geometry">
            <mxPoint x="566" y="1000" as="sourcePoint" />
            <mxPoint x="616" y="950" as="targetPoint" />
          </mxGeometry>
        </mxCell>
        <mxCell id="NLR75R3IP2dXKlOaMzr2-101" value="" style="endArrow=none;html=1;rounded=0;exitX=0;exitY=0.5;exitDx=0;exitDy=0;entryX=0.02;entryY=0.4;entryDx=0;entryDy=0;entryPerimeter=0;" parent="1" source="NLR75R3IP2dXKlOaMzr2-102" edge="1" target="ehOAnHuSmPdxHiw3HloQ-13">
          <mxGeometry width="50" height="50" relative="1" as="geometry">
            <mxPoint x="566" y="1090" as="sourcePoint" />
            <mxPoint x="690" y="1030" as="targetPoint" />
          </mxGeometry>
        </mxCell>
        <mxCell id="NLR75R3IP2dXKlOaMzr2-102" value="" style="triangle;whiteSpace=wrap;html=1;rotation=-165;" parent="1" vertex="1">
          <mxGeometry x="410.27" y="961.23" width="10.36" height="20" as="geometry" />
        </mxCell>
        <mxCell id="NLR75R3IP2dXKlOaMzr2-107" value="" style="endArrow=none;html=1;rounded=0;entryX=0;entryY=0.5;entryDx=0;entryDy=0;exitX=1;exitY=0.5;exitDx=0;exitDy=0;" parent="1" source="s7tWto9GQUN-szoU3cHA-11" target="NLR75R3IP2dXKlOaMzr2-106" edge="1">
          <mxGeometry width="50" height="50" relative="1" as="geometry">
            <mxPoint x="420" y="950" as="sourcePoint" />
            <mxPoint x="666" y="970" as="targetPoint" />
          </mxGeometry>
        </mxCell>
        <mxCell id="NLR75R3IP2dXKlOaMzr2-106" value="" style="triangle;whiteSpace=wrap;html=1;rotation=-165;" parent="1" vertex="1">
          <mxGeometry x="420" y="940" width="12" height="20" as="geometry" />
        </mxCell>
        <mxCell id="NLR75R3IP2dXKlOaMzr2-109" value="" style="endArrow=none;html=1;rounded=0;exitX=0.979;exitY=0.217;exitDx=0;exitDy=0;exitPerimeter=0;" parent="1" source="s7tWto9GQUN-szoU3cHA-11" target="NLR75R3IP2dXKlOaMzr2-108" edge="1">
          <mxGeometry width="50" height="50" relative="1" as="geometry">
            <mxPoint x="417" y="933" as="sourcePoint" />
            <mxPoint x="636" y="900" as="targetPoint" />
          </mxGeometry>
        </mxCell>
        <mxCell id="NLR75R3IP2dXKlOaMzr2-108" value="" style="triangle;whiteSpace=wrap;html=1;rotation=-195;" parent="1" vertex="1">
          <mxGeometry x="410" y="920" width="14" height="20" as="geometry" />
        </mxCell>
        <mxCell id="NLR75R3IP2dXKlOaMzr2-111" value="Registracija ulaznice" style="ellipse;whiteSpace=wrap;html=1;" parent="1" vertex="1">
          <mxGeometry x="610" y="320" width="90" height="50" as="geometry" />
        </mxCell>
        <mxCell id="NLR75R3IP2dXKlOaMzr2-112" value="Odabir kina" style="ellipse;whiteSpace=wrap;html=1;" parent="1" vertex="1">
          <mxGeometry x="737" y="185" width="90" height="50" as="geometry" />
        </mxCell>
        <mxCell id="NLR75R3IP2dXKlOaMzr2-113" value="Odabir sjedala" style="ellipse;whiteSpace=wrap;html=1;" parent="1" vertex="1">
          <mxGeometry x="840" y="350" width="100" height="50" as="geometry" />
        </mxCell>
        <mxCell id="NLR75R3IP2dXKlOaMzr2-114" value="Odabir filma" style="ellipse;whiteSpace=wrap;html=1;" parent="1" vertex="1">
          <mxGeometry x="827" y="260" width="100" height="60" as="geometry" />
        </mxCell>
        <mxCell id="NLR75R3IP2dXKlOaMzr2-116" value="" style="html=1;labelBackgroundColor=#ffffff;startArrow=none;startFill=0;startSize=6;endArrow=classic;endFill=1;endSize=6;jettySize=auto;orthogonalLoop=1;strokeWidth=1;dashed=1;fontSize=14;rounded=0;exitX=1;exitY=0;exitDx=0;exitDy=0;entryX=0;entryY=1;entryDx=0;entryDy=0;" parent="1" source="NLR75R3IP2dXKlOaMzr2-111" target="NLR75R3IP2dXKlOaMzr2-112" edge="1">
          <mxGeometry width="60" height="60" relative="1" as="geometry">
            <mxPoint x="680" y="320" as="sourcePoint" />
            <mxPoint x="766" y="240" as="targetPoint" />
          </mxGeometry>
        </mxCell>
        <mxCell id="NLR75R3IP2dXKlOaMzr2-117" value="&amp;lt;&amp;lt;include&amp;gt;&amp;gt;" style="edgeLabel;html=1;align=center;verticalAlign=middle;resizable=0;points=[];" parent="NLR75R3IP2dXKlOaMzr2-116" vertex="1" connectable="0">
          <mxGeometry x="-0.2754" y="-3" relative="1" as="geometry">
            <mxPoint x="8" y="-13" as="offset" />
          </mxGeometry>
        </mxCell>
        <mxCell id="NLR75R3IP2dXKlOaMzr2-118" value="" style="html=1;labelBackgroundColor=#ffffff;startArrow=none;startFill=0;startSize=6;endArrow=classic;endFill=1;endSize=6;jettySize=auto;orthogonalLoop=1;strokeWidth=1;dashed=1;fontSize=14;rounded=0;entryX=0;entryY=0.5;entryDx=0;entryDy=0;exitX=0.962;exitY=0.331;exitDx=0;exitDy=0;exitPerimeter=0;" parent="1" source="NLR75R3IP2dXKlOaMzr2-111" target="NLR75R3IP2dXKlOaMzr2-114" edge="1">
          <mxGeometry width="60" height="60" relative="1" as="geometry">
            <mxPoint x="700" y="330" as="sourcePoint" />
            <mxPoint x="780" y="320" as="targetPoint" />
          </mxGeometry>
        </mxCell>
        <mxCell id="NLR75R3IP2dXKlOaMzr2-119" value="&amp;lt;&amp;lt;include&amp;gt;&amp;gt;" style="edgeLabel;html=1;align=center;verticalAlign=middle;resizable=0;points=[];" parent="NLR75R3IP2dXKlOaMzr2-118" vertex="1" connectable="0">
          <mxGeometry x="-0.1907" y="2" relative="1" as="geometry">
            <mxPoint x="14" y="-1" as="offset" />
          </mxGeometry>
        </mxCell>
        <mxCell id="NLR75R3IP2dXKlOaMzr2-120" value="" style="html=1;labelBackgroundColor=#ffffff;startArrow=none;startFill=0;startSize=6;endArrow=classic;endFill=1;endSize=6;jettySize=auto;orthogonalLoop=1;strokeWidth=1;dashed=1;fontSize=14;rounded=0;exitX=1;exitY=0.5;exitDx=0;exitDy=0;entryX=0;entryY=0.5;entryDx=0;entryDy=0;" parent="1" source="NLR75R3IP2dXKlOaMzr2-111" target="NLR75R3IP2dXKlOaMzr2-113" edge="1">
          <mxGeometry width="60" height="60" relative="1" as="geometry">
            <mxPoint x="690" y="420" as="sourcePoint" />
            <mxPoint x="750" y="360" as="targetPoint" />
          </mxGeometry>
        </mxCell>
        <mxCell id="NLR75R3IP2dXKlOaMzr2-121" value="&amp;lt;&amp;lt;include&amp;gt;&amp;gt;" style="edgeLabel;html=1;align=center;verticalAlign=middle;resizable=0;points=[];" parent="NLR75R3IP2dXKlOaMzr2-120" vertex="1" connectable="0">
          <mxGeometry x="-0.3661" y="-3" relative="1" as="geometry">
            <mxPoint x="21" y="3" as="offset" />
          </mxGeometry>
        </mxCell>
        <mxCell id="TG3SapH_idE6to1sIgWY-1" value="" style="endArrow=none;html=1;rounded=0;exitX=1;exitY=0.5;exitDx=0;exitDy=0;" edge="1" parent="1" source="ehOAnHuSmPdxHiw3HloQ-9">
          <mxGeometry width="50" height="50" relative="1" as="geometry">
            <mxPoint x="770" y="610" as="sourcePoint" />
            <mxPoint x="1070" y="690" as="targetPoint" />
          </mxGeometry>
        </mxCell>
        <mxCell id="TG3SapH_idE6to1sIgWY-2" value="" style="endArrow=none;html=1;rounded=0;exitX=1;exitY=0.5;exitDx=0;exitDy=0;" edge="1" parent="1" source="ehOAnHuSmPdxHiw3HloQ-11">
          <mxGeometry width="50" height="50" relative="1" as="geometry">
            <mxPoint x="800" y="690" as="sourcePoint" />
            <mxPoint x="1070" y="700" as="targetPoint" />
          </mxGeometry>
        </mxCell>
        <mxCell id="TG3SapH_idE6to1sIgWY-3" value="" style="endArrow=none;html=1;rounded=0;" edge="1" parent="1">
          <mxGeometry width="50" height="50" relative="1" as="geometry">
            <mxPoint x="616" y="690" as="sourcePoint" />
            <mxPoint x="1070" y="710" as="targetPoint" />
          </mxGeometry>
        </mxCell>
        <mxCell id="TG3SapH_idE6to1sIgWY-4" value="" style="endArrow=none;html=1;rounded=0;exitX=1;exitY=0.5;exitDx=0;exitDy=0;" edge="1" parent="1" source="ehOAnHuSmPdxHiw3HloQ-19">
          <mxGeometry width="50" height="50" relative="1" as="geometry">
            <mxPoint x="740" y="760" as="sourcePoint" />
            <mxPoint x="1070" y="720" as="targetPoint" />
          </mxGeometry>
        </mxCell>
        <mxCell id="TG3SapH_idE6to1sIgWY-5" value="" style="endArrow=none;html=1;rounded=0;exitX=1;exitY=0.5;exitDx=0;exitDy=0;" edge="1" parent="1" source="ehOAnHuSmPdxHiw3HloQ-21">
          <mxGeometry width="50" height="50" relative="1" as="geometry">
            <mxPoint x="740" y="800" as="sourcePoint" />
            <mxPoint x="1070" y="730" as="targetPoint" />
          </mxGeometry>
        </mxCell>
        <mxCell id="TG3SapH_idE6to1sIgWY-6" value="" style="endArrow=none;html=1;rounded=0;exitX=1.02;exitY=0.4;exitDx=0;exitDy=0;exitPerimeter=0;" edge="1" parent="1" source="ehOAnHuSmPdxHiw3HloQ-20">
          <mxGeometry width="50" height="50" relative="1" as="geometry">
            <mxPoint x="750" y="860" as="sourcePoint" />
            <mxPoint x="1070" y="740" as="targetPoint" />
          </mxGeometry>
        </mxCell>
        <mxCell id="TG3SapH_idE6to1sIgWY-7" value="" style="endArrow=none;html=1;rounded=0;exitX=0.96;exitY=0.317;exitDx=0;exitDy=0;exitPerimeter=0;" edge="1" parent="1" source="ehOAnHuSmPdxHiw3HloQ-12">
          <mxGeometry width="50" height="50" relative="1" as="geometry">
            <mxPoint x="810" y="880" as="sourcePoint" />
            <mxPoint x="1070" y="750" as="targetPoint" />
          </mxGeometry>
        </mxCell>
        <mxCell id="TG3SapH_idE6to1sIgWY-8" value="" style="endArrow=none;html=1;rounded=0;exitX=1;exitY=0;exitDx=0;exitDy=0;" edge="1" parent="1" source="ehOAnHuSmPdxHiw3HloQ-14">
          <mxGeometry width="50" height="50" relative="1" as="geometry">
            <mxPoint x="760" y="960" as="sourcePoint" />
            <mxPoint x="1070" y="760" as="targetPoint" />
          </mxGeometry>
        </mxCell>
        <mxCell id="TG3SapH_idE6to1sIgWY-9" value="" style="endArrow=none;html=1;rounded=0;" edge="1" parent="1" source="ehOAnHuSmPdxHiw3HloQ-13">
          <mxGeometry width="50" height="50" relative="1" as="geometry">
            <mxPoint x="850" y="1010" as="sourcePoint" />
            <mxPoint x="1070" y="770" as="targetPoint" />
          </mxGeometry>
        </mxCell>
      </root>
    </mxGraphModel>
  </diagram>
</mxfile>
